<svg xmlns="http://www.w3.org/2000/svg" viewBox="0 0 220 320" role="img" aria-label="Professional female guide full body explaining">
  <defs>
    <linearGradient id="bg2" x1="0" y1="0" x2="0" y2="1">
      <stop offset="0" stop-color="#edf5ff"/>
      <stop offset="1" stop-color="#d8e8fd"/>
    </linearGradient>
    <linearGradient id="blazer2" x1="0" y1="0" x2="1" y2="1">
      <stop offset="0" stop-color="#24599d"/>
      <stop offset="1" stop-color="#1a457d"/>
    </linearGradient>
  </defs>
  <rect width="220" height="320" rx="28" fill="url(#bg2)"/>
  <rect x="20" y="250" width="180" height="52" rx="16" fill="#c8ddf8" opacity="0.58"/>

  <ellipse cx="108" cy="74" rx="39" ry="41" fill="#f5c9a6"/>
  <path d="M64 75c0-35 21-56 45-56 27 0 45 20 45 50 0 18-6 32-15 42-3-12-12-21-23-26-10-4-22-4-32 0-8 3-15 9-20 16-3-7-4-13-4-26z" fill="#2c446a"/>
  <ellipse cx="92" cy="78" rx="4.1" ry="4.6" fill="#223651"/>
  <ellipse cx="124" cy="78" rx="4.1" ry="4.6" fill="#223651"/>
  <path d="M92 97c9 10 24 10 33 1" fill="none" stroke="#a14a4a" stroke-width="4" stroke-linecap="round"/>

  <path d="M84 114h48l8 22-32 18-32-18z" fill="#ffffff"/>
  <path d="M74 146c10-9 24-13 34-13 11 0 23 4 33 13l17 67h-24l-8-41-18 15-18-15-8 41H58z" fill="url(#blazer2)"/>
  <path d="M96 136h24v81H96z" fill="#ffffff"/>

  <path d="M140 162c10 2 18 8 23 16" stroke="#1c4b86" stroke-width="8" stroke-linecap="round"/>
  <circle cx="166" cy="183" r="9" fill="#f5c9a6"/>

  <rect x="72" y="216" width="76" height="58" rx="12" fill="#346fb8"/>
  <rect x="86" y="274" width="18" height="32" rx="9" fill="#23436f"/>
  <rect x="112" y="274" width="18" height="32" rx="9" fill="#23436f"/>
  <rect x="82" y="302" width="24" height="8" rx="4" fill="#10223b"/>
  <rect x="110" y="302" width="24" height="8" rx="4" fill="#10223b"/>

  <rect x="150" y="38" width="34" height="34" rx="9" fill="#2d8dff"/>
  <path d="M166 47v16M158 55h16" stroke="#fff" stroke-width="3" stroke-linecap="round"/>
</svg>
