<svg xmlns="http://www.w3.org/2000/svg" viewBox="0 0 220 320" role="img" aria-label="Professional female guide full body smiling">
  <defs>
    <linearGradient id="bg4" x1="0" y1="0" x2="0" y2="1">
      <stop offset="0" stop-color="#eef6ff"/>
      <stop offset="1" stop-color="#d9ebff"/>
    </linearGradient>
    <linearGradient id="blazer4" x1="0" y1="0" x2="1" y2="1">
      <stop offset="0" stop-color="#2560a8"/>
      <stop offset="1" stop-color="#1b4a86"/>
    </linearGradient>
  </defs>
  <rect width="220" height="320" rx="28" fill="url(#bg4)"/>
  <rect x="18" y="250" width="184" height="52" rx="16" fill="#c8def8" opacity="0.58"/>

  <ellipse cx="109" cy="74" rx="40" ry="42" fill="#f5c9a6"/>
  <path d="M65 75c0-34 22-55 45-55 27 0 45 20 45 50 0 19-7 33-16 42-2-12-11-22-23-27-10-5-23-6-33-3-8 2-15 8-21 15-3-6-4-12-4-22z" fill="#2c446a"/>
  <ellipse cx="93" cy="78" rx="4.2" ry="4.6" fill="#21354f"/>
  <ellipse cx="125" cy="78" rx="4.2" ry="4.6" fill="#21354f"/>
  <path d="M91 96c10 12 28 12 38 0" fill="none" stroke="#aa4e4e" stroke-width="4" stroke-linecap="round"/>

  <path d="M85 114h48l8 22-32 18-32-18z" fill="#ffffff"/>
  <path d="M75 146c10-8 24-13 34-13 11 0 24 5 34 13l16 66h-24l-8-42-18 16-18-16-8 42H59z" fill="url(#blazer4)"/>
  <path d="M97 136h24v80H97z" fill="#ffffff"/>

  <path d="M78 168c-10 4-17 10-22 18" stroke="#1f4f8f" stroke-width="8" stroke-linecap="round"/>
  <circle cx="54" cy="190" r="9" fill="#f5c9a6"/>

  <rect x="71" y="216" width="76" height="58" rx="12" fill="#3672bb"/>
  <rect x="87" y="274" width="18" height="32" rx="9" fill="#22436e"/>
  <rect x="113" y="274" width="18" height="32" rx="9" fill="#22436e"/>
  <rect x="83" y="302" width="24" height="8" rx="4" fill="#10223b"/>
  <rect x="111" y="302" width="24" height="8" rx="4" fill="#10223b"/>

  <circle cx="170" cy="46" r="14" fill="#2d8dff"/>
  <path d="M164 46l4 4 7-8" fill="none" stroke="#fff" stroke-width="3" stroke-linecap="round" stroke-linejoin="round"/>
</svg>
