<svg xmlns="http://www.w3.org/2000/svg" viewBox="0 0 220 320" role="img" aria-label="Professional female guide full body intro">
  <defs>
    <linearGradient id="bg" x1="0" y1="0" x2="0" y2="1">
      <stop offset="0" stop-color="#eef5ff"/>
      <stop offset="1" stop-color="#dce9fb"/>
    </linearGradient>
    <linearGradient id="blazer" x1="0" y1="0" x2="1" y2="1">
      <stop offset="0" stop-color="#1f4f8f"/>
      <stop offset="1" stop-color="#173e73"/>
    </linearGradient>
  </defs>
  <rect width="220" height="320" rx="28" fill="url(#bg)"/>
  <rect x="18" y="250" width="184" height="52" rx="16" fill="#c9ddf8" opacity="0.55"/>

  <ellipse cx="110" cy="74" rx="40" ry="42" fill="#f5c9a6"/>
  <path d="M66 76c0-34 22-56 45-56 27 0 45 20 45 51 0 20-8 34-17 42-1-11-7-21-17-27-10-6-23-8-34-5-10 2-18 8-25 16-3-7-4-13-4-21z" fill="#2b4268"/>
  <ellipse cx="94" cy="78" rx="4.2" ry="4.6" fill="#213651"/>
  <ellipse cx="126" cy="78" rx="4.2" ry="4.6" fill="#213651"/>
  <path d="M96 97c8 9 24 9 32 0" fill="none" stroke="#a84f4f" stroke-width="4" stroke-linecap="round"/>
  <path d="M84 70c5-4 10-5 16-4" fill="none" stroke="#20344f" stroke-width="3" stroke-linecap="round"/>
  <path d="M120 66c6-1 11 0 16 4" fill="none" stroke="#20344f" stroke-width="3" stroke-linecap="round"/>

  <path d="M86 114h48l8 22-32 18-32-18z" fill="#ffffff"/>
  <path d="M76 146c10-8 24-13 34-13 11 0 24 5 34 13l16 66h-24l-8-42-18 16-18-16-8 42H60z" fill="url(#blazer)"/>
  <path d="M98 136h24v80h-24z" fill="#ffffff"/>
  <circle cx="110" cy="162" r="2.5" fill="#8da7c9"/>
  <circle cx="110" cy="174" r="2.5" fill="#8da7c9"/>
  <circle cx="110" cy="186" r="2.5" fill="#8da7c9"/>

  <rect x="72" y="216" width="76" height="58" rx="12" fill="#2f69b2"/>
  <rect x="88" y="274" width="18" height="32" rx="9" fill="#213f69"/>
  <rect x="114" y="274" width="18" height="32" rx="9" fill="#213f69"/>
  <rect x="84" y="302" width="24" height="8" rx="4" fill="#0f1f36"/>
  <rect x="112" y="302" width="24" height="8" rx="4" fill="#0f1f36"/>

  <rect x="34" y="28" width="92" height="22" rx="11" fill="#2d8dff"/>
  <text x="80" y="43" text-anchor="middle" font-family="Arial, sans-serif" font-size="10" fill="#ffffff" font-weight="700">Corporate Guide</text>
</svg>
