<svg xmlns="http://www.w3.org/2000/svg" viewBox="0 0 220 320" role="img" aria-label="Professional female guide full body focused">
  <defs>
    <linearGradient id="bg3" x1="0" y1="0" x2="0" y2="1">
      <stop offset="0" stop-color="#ecf4ff"/>
      <stop offset="1" stop-color="#d4e6ff"/>
    </linearGradient>
    <linearGradient id="blazer3" x1="0" y1="0" x2="1" y2="1">
      <stop offset="0" stop-color="#1f508f"/>
      <stop offset="1" stop-color="#183f73"/>
    </linearGradient>
  </defs>
  <rect width="220" height="320" rx="28" fill="url(#bg3)"/>
  <rect x="19" y="250" width="182" height="52" rx="16" fill="#c5dbfa" opacity="0.6"/>

  <ellipse cx="110" cy="74" rx="40" ry="42" fill="#f5c9a6"/>
  <path d="M66 75c0-34 21-55 45-55 27 0 45 20 45 50 0 17-6 31-15 41-3-11-11-21-21-26-11-6-24-7-35-4-8 2-15 7-21 14-3-6-4-12-4-20z" fill="#2a4266"/>
  <ellipse cx="94" cy="78" rx="4.2" ry="4.6" fill="#21344f"/>
  <ellipse cx="126" cy="78" rx="4.2" ry="4.6" fill="#21344f"/>
  <path d="M95 98c8 8 23 8 31 0" fill="none" stroke="#9f4949" stroke-width="4" stroke-linecap="round"/>

  <path d="M86 114h48l8 22-32 18-32-18z" fill="#ffffff"/>
  <path d="M76 146c10-8 24-13 34-13 11 0 24 5 34 13l16 66h-24l-8-42-18 16-18-16-8 42H60z" fill="url(#blazer3)"/>
  <path d="M98 136h24v80h-24z" fill="#ffffff"/>

  <rect x="72" y="216" width="76" height="58" rx="12" fill="#2f69b2"/>
  <rect x="88" y="274" width="18" height="32" rx="9" fill="#213f69"/>
  <rect x="114" y="274" width="18" height="32" rx="9" fill="#213f69"/>
  <rect x="84" y="302" width="24" height="8" rx="4" fill="#0f1f36"/>
  <rect x="112" y="302" width="24" height="8" rx="4" fill="#0f1f36"/>

  <rect x="24" y="38" width="40" height="24" rx="8" fill="#2d8dff"/>
  <text x="44" y="54" text-anchor="middle" font-family="Arial, sans-serif" font-size="10" fill="#ffffff" font-weight="700">Focus</text>
</svg>
